<?xml version="1.0" encoding="utf-8"?>
<!-- Generator: Adobe Illustrator 24.0.0, SVG Export Plug-In . SVG Version: 6.00 Build 0)  -->
<svg version="1.1" id="Capa_1" xmlns="http://www.w3.org/2000/svg" xmlns:xlink="http://www.w3.org/1999/xlink" x="0px" y="0px"
	 viewBox="0 0 200 200" style="enable-background:new 0 0 200 200;" xml:space="preserve">
<style type="text/css">
	.st0{fill:#8C169E;}
</style>
<path class="st0" d="M97.2,107.9v46.8c0,6.4,3.3,12.4,8.8,15.8l33.2,17.5v-37.5c0-5.5-3.3-10.5-8.3-12.7c-5.4-2.4-9.2-3.8-14.2-6.3
	C99,122.6,97.2,107.9,97.2,107.9"/>
<path class="st0" d="M97.2,107.5V51.7c0-7.6,4-14.8,10.4-18.8L147.2,12v44.7c0,6.6-3.9,12.5-9.9,15.2c-6.4,2.9-11,4.5-17,7.5
	C99.3,90,97.2,107.5,97.2,107.5"/>
<path class="st0" d="M84.3,108.6v25c0,3.4-1.8,6.6-4.7,8.4l-17.8,9.4v-20.1c0-2.9,1.7-5.6,4.4-6.8c2.9-1.3,4.9-2,7.6-3.4
	C83.4,116.4,84.3,108.6,84.3,108.6"/>
<path class="st0" d="M84.3,106V70.8c0-4.8-2.5-9.3-6.6-11.9l-25-13.2V74c0,4.1,2.5,7.9,6.2,9.6c4,1.8,7,2.9,10.7,4.7
	C83,95,84.3,106,84.3,106"/>
</svg>
